<?xml version="1.0" encoding="UTF-8"?>
<!DOCTYPE svg PUBLIC "-//W3C//DTD SVG 1.1//EN" "http://www.w3.org/Graphics/SVG/1.1/DTD/svg11.dtd">
<svg xmlns="http://www.w3.org/2000/svg" version="1.1" width="512px" height="512px" style="shape-rendering:geometricPrecision; text-rendering:geometricPrecision; image-rendering:optimizeQuality; fill-rule:evenodd; clip-rule:evenodd" xmlns:xlink="http://www.w3.org/1999/xlink">
<g><path style="opacity:0.946" fill="#000000" d="M 193.5,49.5 C 234.835,49.3333 276.168,49.5 317.5,50C 333.661,52.4931 343.827,61.6598 348,77.5C 348.5,89.1619 348.667,100.829 348.5,112.5C 387.501,112.333 426.501,112.5 465.5,113C 481.922,116.423 492.089,126.256 496,142.5C 496.991,240.543 496.657,338.543 495,436.5C 489.706,450.127 479.873,458.293 465.5,461C 325.5,461.667 185.5,461.667 45.5,461C 31.1271,458.293 21.2937,450.127 16,436.5C 14.3427,338.543 14.0093,240.543 15,142.5C 18.9112,126.256 29.0779,116.423 45.5,113C 84.4986,112.5 123.499,112.333 162.5,112.5C 162.333,100.829 162.5,89.1619 163,77.5C 167.345,61.6486 177.512,52.3153 193.5,49.5 Z M 193.5,71.5 C 234.835,71.3333 276.168,71.5 317.5,72C 322.4,73.9018 325.567,77.4018 327,82.5C 327.5,92.4944 327.666,102.494 327.5,112.5C 279.5,112.5 231.5,112.5 183.5,112.5C 183.334,102.494 183.5,92.4944 184,82.5C 185.599,77.406 188.766,73.7393 193.5,71.5 Z M 46.5,134.5 C 186.889,134.005 327.223,134.505 467.5,136C 471.612,138.779 474.112,142.612 475,147.5C 475.924,173.862 475.591,200.195 474,226.5C 466.731,255.436 448.564,273.269 419.5,280C 379.168,280.5 338.835,280.667 298.5,280.5C 298.891,268.447 298.391,256.447 297,244.5C 295.833,243.333 294.667,242.167 293.5,241C 280.758,239.851 267.925,239.351 255,239.5C 242.833,239.667 230.667,239.833 218.5,240C 214.945,242.21 213.112,245.377 213,249.5C 212.5,259.828 212.334,270.161 212.5,280.5C 172.165,280.667 131.832,280.5 91.5,280C 58.9751,272.142 40.4751,251.642 36,218.5C 35.3333,194.833 35.3333,171.167 36,147.5C 37.1769,141.169 40.6769,136.835 46.5,134.5 Z M 234.5,260.5 C 248.5,260.5 262.5,260.5 276.5,260.5C 276.5,281.167 276.5,301.833 276.5,322.5C 262.5,322.5 248.5,322.5 234.5,322.5C 234.5,301.833 234.5,281.167 234.5,260.5 Z M 35.5,272.5 C 49.5333,287.186 66.5333,296.686 86.5,301C 128.473,302.455 170.473,302.955 212.5,302.5C 212.333,313.172 212.5,323.839 213,334.5C 213.376,339.876 216.21,343.042 221.5,344C 244.167,344.667 266.833,344.667 289.5,344C 294.79,343.042 297.624,339.876 298,334.5C 298.5,323.839 298.667,313.172 298.5,302.5C 340.527,302.955 382.527,302.455 424.5,301C 444.364,296.819 461.198,287.319 475,272.5C 475.667,323.833 475.667,375.167 475,426.5C 474.077,431.412 471.577,435.245 467.5,438C 326.914,439.663 186.247,439.997 45.5,439C 40.2931,436.435 37.1265,432.268 36,426.5C 35.5,375.168 35.3333,323.834 35.5,272.5 Z"/></g>
</svg>
