<?xml version="1.0" encoding="UTF-8"?>
<!DOCTYPE svg PUBLIC "-//W3C//DTD SVG 1.1//EN" "http://www.w3.org/Graphics/SVG/1.1/DTD/svg11.dtd">
<svg xmlns="http://www.w3.org/2000/svg" version="1.1" width="512px" height="512px" style="shape-rendering:geometricPrecision; text-rendering:geometricPrecision; image-rendering:optimizeQuality; fill-rule:evenodd; clip-rule:evenodd" xmlns:xlink="http://www.w3.org/1999/xlink">
<g><path style="opacity:0.988" fill="#000000" d="M 66.5,69.5 C 72.4728,69.5257 77.8061,71.359 82.5,75C 132.333,118.833 182.167,162.667 232,206.5C 232.034,165.467 232.701,124.467 234,83.5C 240.358,70.9083 250.192,67.075 263.5,72C 330.593,129.756 397.093,188.256 463,247.5C 469.365,259.77 467.198,270.27 456.5,279C 393.167,331.667 329.833,384.333 266.5,437C 252.48,444.475 241.647,441.308 234,427.5C 232.71,388.862 232.043,350.196 232,311.5C 181.875,352.623 132.041,394.123 82.5,436C 70.0017,444.101 59.1684,442.267 50,430.5C 49.3333,428.5 48.6667,426.5 48,424.5C 47.3333,311.833 47.3333,199.167 48,86.5C 50.5504,76.7788 56.7171,71.1122 66.5,69.5 Z"/></g>
</svg>
