<?xml version="1.0" encoding="UTF-8"?>
<!DOCTYPE svg PUBLIC "-//W3C//DTD SVG 1.1//EN" "http://www.w3.org/Graphics/SVG/1.1/DTD/svg11.dtd">
<svg xmlns="http://www.w3.org/2000/svg" version="1.1" width="512px" height="512px" style="shape-rendering:geometricPrecision; text-rendering:geometricPrecision; image-rendering:optimizeQuality; fill-rule:evenodd; clip-rule:evenodd" xmlns:xlink="http://www.w3.org/1999/xlink">
<g><path style="opacity:0.982" fill="#000000" d="M 152.5,41.5 C 221.167,41.3333 289.834,41.5 358.5,42C 383.419,46.5701 395.253,61.4034 394,86.5C 388.998,121.159 375.331,151.826 353,178.5C 337.032,196.802 320.032,214.135 302,230.5C 290.667,247.167 290.667,263.833 302,280.5C 322.067,298.565 340.733,317.898 358,338.5C 380.724,367.953 392.724,401.286 394,438.5C 388.668,456.161 376.835,466.328 358.5,469C 289.833,469.667 221.167,469.667 152.5,469C 124.462,463.415 112.962,446.582 118,418.5C 124.491,383.52 139.491,352.853 163,326.5C 177.667,310.5 193,295.167 209,280.5C 220.332,263.821 220.332,247.154 209,230.5C 188.933,212.435 170.267,193.102 153,172.5C 133.612,147.025 121.612,118.358 117,86.5C 115.941,61.3865 127.775,46.3865 152.5,41.5 Z M 253.5,292.5 C 255.927,292.523 258.26,293.023 260.5,294C 280.333,312.5 300.167,331 320,349.5C 340.244,372.221 350.244,398.888 350,429.5C 349.226,431.939 347.726,433.773 345.5,435C 286.558,436.655 227.558,436.988 168.5,436C 162.656,434.15 159.989,430.15 160.5,424C 162.021,395.479 172.188,370.646 191,349.5C 196.5,344 202,338.5 207.5,333C 223.05,319.609 238.383,306.109 253.5,292.5 Z"/></g>
</svg>
