<?xml version="1.0" encoding="UTF-8"?>
<!DOCTYPE svg PUBLIC "-//W3C//DTD SVG 1.1//EN" "http://www.w3.org/Graphics/SVG/1.1/DTD/svg11.dtd">
<svg xmlns="http://www.w3.org/2000/svg" version="1.1" width="512px" height="512px" style="shape-rendering:geometricPrecision; text-rendering:geometricPrecision; image-rendering:optimizeQuality; fill-rule:evenodd; clip-rule:evenodd" xmlns:xlink="http://www.w3.org/1999/xlink">
<g><path style="opacity:0.968" fill="#000000" d="M 166.5,25.5 C 222.454,25.3808 278.454,25.5474 334.5,26C 366.315,26.1208 396.315,33.4541 424.5,48C 451.368,65.1801 468.868,89.3467 477,120.5C 480.412,133.641 482.746,146.974 484,160.5C 485.099,192.152 485.599,223.818 485.5,255.5C 485.599,287.182 485.099,318.848 484,350.5C 482.287,376.689 475.287,401.356 463,424.5C 445.82,451.368 421.653,468.868 390.5,477C 377.359,480.412 364.026,482.746 350.5,484C 290.134,485.466 229.801,485.966 169.5,485.5C 75.0516,479.55 27.2183,429.217 26,334.5C 25.3333,281.833 25.3333,229.167 26,176.5C 26.0332,143.365 34.0332,112.365 50,83.5C 66.5332,59.1393 89.0332,42.9727 117.5,35C 133.786,30.8472 150.119,27.6805 166.5,25.5 Z M 186.5,58.5 C 240.85,58.0627 295.183,58.5627 349.5,60C 373.04,61.4027 394.706,68.4027 414.5,81C 432.754,96.6568 443.92,116.49 448,140.5C 450.211,152.401 451.545,164.401 452,176.5C 452.667,229.167 452.667,281.833 452,334.5C 451.961,360.655 445.961,385.322 434,408.5C 421.613,427.193 404.446,439.36 382.5,445C 371.678,447.97 360.678,449.97 349.5,451C 295.183,452.437 240.85,452.937 186.5,452.5C 186.5,321.167 186.5,189.833 186.5,58.5 Z M 146.5,61.5 C 148.833,61.5 151.167,61.5 153.5,61.5C 153.5,190.833 153.5,320.167 153.5,449.5C 127.51,447.679 105.01,438.012 86,420.5C 71.6235,402.391 63.2901,381.725 61,358.5C 60.0967,350.854 59.4301,343.188 59,335.5C 58.3333,282.167 58.3333,228.833 59,175.5C 59.115,148.37 65.7817,123.036 79,99.5C 88.1348,86.7046 99.9681,77.2046 114.5,71C 125.009,66.878 135.676,63.7114 146.5,61.5 Z"/></g>
<g><path style="opacity:0.956" fill="#000000" d="M 315.5,184.5 C 333.057,185.282 338.89,193.948 333,210.5C 317.986,225.347 303.153,240.347 288.5,255.5C 304.182,271.348 319.682,287.348 335,303.5C 337.945,319.889 331.111,327.389 314.5,326C 312.275,325.439 310.275,324.439 308.5,323C 289.667,304.167 270.833,285.333 252,266.5C 247.333,259.167 247.333,251.833 252,244.5C 270.833,225.667 289.667,206.833 308.5,188C 310.925,186.787 313.259,185.621 315.5,184.5 Z"/></g>
</svg>
