<?xml version="1.0" encoding="UTF-8"?>
<!DOCTYPE svg PUBLIC "-//W3C//DTD SVG 1.1//EN" "http://www.w3.org/Graphics/SVG/1.1/DTD/svg11.dtd">
<svg xmlns="http://www.w3.org/2000/svg" version="1.1" width="512px" height="512px" style="shape-rendering:geometricPrecision; text-rendering:geometricPrecision; image-rendering:optimizeQuality; fill-rule:evenodd; clip-rule:evenodd" xmlns:xlink="http://www.w3.org/1999/xlink">
<g><path style="opacity:0.974" fill="#000000" d="M 176.5,25.5 C 229.168,25.3333 281.834,25.5 334.5,26C 366.312,26.1199 396.312,33.4532 424.5,48C 451.372,65.1918 468.872,89.3585 477,120.5C 480.412,133.641 482.746,146.974 484,160.5C 485.099,192.152 485.599,223.818 485.5,255.5C 485.599,287.182 485.099,318.848 484,350.5C 482.287,376.689 475.287,401.356 463,424.5C 445.82,451.368 421.653,468.868 390.5,477C 377.357,480.413 364.024,482.746 350.5,484C 318.848,485.099 287.182,485.599 255.5,485.5C 223.818,485.599 192.152,485.099 160.5,484C 134.308,482.286 109.641,475.286 86.5,463C 55.9234,443.076 37.4234,414.909 31,378.5C 28.1469,363.969 26.4803,349.303 26,334.5C 25.3333,281.833 25.3333,229.167 26,176.5C 26.1203,144.687 33.4536,114.687 48,86.5C 65.1801,59.6322 89.3467,42.1322 120.5,34C 139.05,29.4227 157.717,26.5894 176.5,25.5 Z M 175.5,58.5 C 218.167,58.5 260.833,58.5 303.5,58.5C 303.5,189.833 303.5,321.167 303.5,452.5C 260.832,452.667 218.165,452.5 175.5,452C 149.699,451.8 125.366,445.8 102.5,434C 83.8071,421.613 71.6405,404.446 66,382.5C 61.7149,366.789 59.3816,350.789 59,334.5C 58.3333,281.833 58.3333,229.167 59,176.5C 58.6326,147.617 65.966,120.951 81,96.5C 95.2781,79.4327 113.445,68.5994 135.5,64C 148.877,61.3879 162.211,59.5546 175.5,58.5 Z M 335.5,59.5 C 362.656,59.1219 387.989,65.6219 411.5,79C 428.477,91.4201 439.644,107.92 445,128.5C 449.285,144.211 451.618,160.211 452,176.5C 452.667,229.167 452.667,281.833 452,334.5C 451.989,359.874 446.323,383.874 435,406.5C 425.229,422.263 411.729,433.763 394.5,441C 375.447,447.953 355.78,451.453 335.5,451.5C 335.5,320.833 335.5,190.167 335.5,59.5 Z"/></g>
<g><path style="opacity:0.958" fill="#000000" d="M 166.5,184.5 C 171.08,184.113 175.414,184.947 179.5,187C 199.333,206.833 219.167,226.667 239,246.5C 242.333,252.5 242.333,258.5 239,264.5C 219.167,284.333 199.333,304.167 179.5,324C 165.372,329.271 156.705,324.605 153.5,310C 154.042,306.284 155.209,302.784 157,299.5C 171.681,284.986 186.181,270.319 200.5,255.5C 186.181,240.681 171.681,226.014 157,211.5C 150.906,199.05 154.073,190.05 166.5,184.5 Z"/></g>
</svg>
