<?xml version="1.0" encoding="UTF-8"?>
<!DOCTYPE svg PUBLIC "-//W3C//DTD SVG 1.1//EN" "http://www.w3.org/Graphics/SVG/1.1/DTD/svg11.dtd">
<svg xmlns="http://www.w3.org/2000/svg" version="1.1" width="512px" height="512px" style="shape-rendering:geometricPrecision; text-rendering:geometricPrecision; image-rendering:optimizeQuality; fill-rule:evenodd; clip-rule:evenodd" xmlns:xlink="http://www.w3.org/1999/xlink">
<g><path style="opacity:0.993" fill="#000000" d="M 282.5,11.5 C 312.502,11.3334 342.502,11.5 372.5,12C 375.333,13.5 377.5,15.6667 379,18.5C 379.667,29.8333 379.667,41.1667 379,52.5C 377.5,55.3333 375.333,57.5 372.5,59C 342.5,59.6667 312.5,59.6667 282.5,59C 279.667,57.5 277.5,55.3333 276,52.5C 275.333,41.1667 275.333,29.8333 276,18.5C 277.694,15.6424 279.861,13.309 282.5,11.5 Z"/></g>
<g><path style="opacity:0.966" fill="#000000" d="M 303.5,71.5 C 319.5,71.5 335.5,71.5 351.5,71.5C 351.5,78.5 351.5,85.5 351.5,92.5C 385.161,97.3371 415.161,110.337 441.5,131.5C 447.017,126.149 452.684,120.982 458.5,116C 468.403,113.462 474.403,117.295 476.5,127.5C 475.846,129.115 475.346,130.782 475,132.5C 470.351,137.983 465.518,143.316 460.5,148.5C 508.998,206.146 520.164,270.479 494,341.5C 473.625,388.208 439.792,421.042 392.5,440C 323.373,463.506 261.039,451.839 205.5,405C 151.886,351.384 135.386,287.884 156,214.5C 164.515,189.856 177.349,167.856 194.5,148.5C 189.482,143.316 184.649,137.983 180,132.5C 177.462,122.597 181.295,116.597 191.5,114.5C 193.115,115.154 194.782,115.654 196.5,116C 202.316,120.982 207.983,126.149 213.5,131.5C 239.835,110.34 269.835,97.3397 303.5,92.5C 303.5,85.5 303.5,78.5 303.5,71.5 Z M 324.5,123.5 C 389.777,126.034 436.277,156.701 464,215.5C 484.597,272.498 475.597,324.165 437,370.5C 389.771,417.681 334.604,430.181 271.5,408C 213.445,381.091 183.112,335.591 180.5,271.5C 182.564,211.511 209.897,167.345 262.5,139C 282.271,129.724 302.938,124.557 324.5,123.5 Z"/></g>
<g><path style="opacity:0.992" fill="#000000" d="M 311.5,135.5 C 316.833,135.5 322.167,135.5 327.5,135.5C 327.5,180.833 327.5,226.167 327.5,271.5C 372.833,271.5 418.167,271.5 463.5,271.5C 461.223,330.912 433.223,373.078 379.5,398C 325.445,417.216 276.778,408.216 233.5,371C 191.057,326.539 180.557,275.372 202,217.5C 223.866,170.648 260.366,143.315 311.5,135.5 Z"/></g>
<g><path style="opacity:0.986" fill="#000000" d="M 50.5,187.5 C 80.5019,187.333 110.502,187.5 140.5,188C 147.07,191.655 149.237,197.155 147,204.5C 145.5,207.333 143.333,209.5 140.5,211C 110.5,211.667 80.5,211.667 50.5,211C 43.4505,206.513 41.6172,200.346 45,192.5C 46.7297,190.598 48.563,188.931 50.5,187.5 Z"/></g>
<g><path style="opacity:0.988" fill="#000000" d="M 10.5,235.5 C 48.5015,235.333 86.5015,235.5 124.5,236C 131.07,239.655 133.237,245.155 131,252.5C 129.5,255.333 127.333,257.5 124.5,259C 86.5,259.667 48.5,259.667 10.5,259C 3.45054,254.513 1.61721,248.346 5,240.5C 6.72969,238.598 8.56303,236.931 10.5,235.5 Z"/></g>
<g><path style="opacity:0.986" fill="#000000" d="M 34.5,283.5 C 64.5019,283.333 94.5019,283.5 124.5,284C 131.07,287.655 133.237,293.155 131,300.5C 129.5,303.333 127.333,305.5 124.5,307C 94.5,307.667 64.5,307.667 34.5,307C 27.4505,302.513 25.6172,296.346 29,288.5C 30.7297,286.598 32.563,284.931 34.5,283.5 Z"/></g>
<g><path style="opacity:0.981" fill="#000000" d="M 66.5,331.5 C 88.5025,331.333 110.503,331.5 132.5,332C 139.07,335.655 141.237,341.155 139,348.5C 137.5,351.333 135.333,353.5 132.5,355C 110.5,355.667 88.5,355.667 66.5,355C 59.4505,350.513 57.6172,344.346 61,336.5C 62.7297,334.598 64.563,332.931 66.5,331.5 Z"/></g>
</svg>
