<?xml version="1.0" encoding="UTF-8"?>
<!DOCTYPE svg PUBLIC "-//W3C//DTD SVG 1.1//EN" "http://www.w3.org/Graphics/SVG/1.1/DTD/svg11.dtd">
<svg xmlns="http://www.w3.org/2000/svg" version="1.1" width="512px" height="512px" style="shape-rendering:geometricPrecision; text-rendering:geometricPrecision; image-rendering:optimizeQuality; fill-rule:evenodd; clip-rule:evenodd" xmlns:xlink="http://www.w3.org/1999/xlink">
<g><path style="opacity:0.972" fill="#000002" d="M 233.5,-0.5 C 248.167,-0.5 262.833,-0.5 277.5,-0.5C 377.805,11.9821 449.305,63.9821 492,155.5C 502.297,180.687 508.797,206.687 511.5,233.5C 511.5,248.167 511.5,262.833 511.5,277.5C 499.018,377.805 447.018,449.305 355.5,492C 330.313,502.297 304.313,508.797 277.5,511.5C 262.833,511.5 248.167,511.5 233.5,511.5C 133.195,499.018 61.6947,447.018 19,355.5C 8.70332,330.313 2.20332,304.313 -0.5,277.5C -0.5,262.833 -0.5,248.167 -0.5,233.5C 11.9821,133.195 63.9821,61.6947 155.5,19C 180.687,8.70332 206.687,2.20332 233.5,-0.5 Z M 254.5,40.5 C 346.959,44.7843 413.126,88.451 453,171.5C 480.741,242.339 474.407,310.006 434,374.5C 377.982,450.742 303.149,480.909 209.5,465C 139.032,447.193 88.5324,405.36 58,339.5C 30.2593,268.661 36.5926,200.994 77,136.5C 120.333,75.5781 179.5,43.5781 254.5,40.5 Z"/></g>
<g><path style="opacity:0.965" fill="#000002" d="M 200.5,130.5 C 219.839,128.071 231.006,136.404 234,155.5C 234.667,220.833 234.667,286.167 234,351.5C 231.207,370.289 220.374,378.456 201.5,376C 189.872,372.376 183.372,364.542 182,352.5C 181.333,286.5 181.333,220.5 182,154.5C 183.538,142.81 189.705,134.81 200.5,130.5 Z"/></g>
<g><path style="opacity:0.98" fill="#000002" d="M 303.5,130.5 C 320.606,128.147 331.439,135.147 336,151.5C 336.667,219.5 336.667,287.5 336,355.5C 330.381,373.09 318.547,379.59 300.5,375C 292.062,371.563 286.895,365.396 285,356.5C 284.333,287.5 284.333,218.5 285,149.5C 288.017,139.984 294.184,133.651 303.5,130.5 Z"/></g>
</svg>
